<svg xmlns="http://www.w3.org/2000/svg" stroke="currentColor" stroke-linecap="round" stroke-linejoin="round" fill="currentColor" stroke-width="0" viewBox="0 0 48 48"><path d="M11.605 16.802a3.389 3.389 0 1 0 .998-2.398 3.381 3.381 0 0 0-.99 2.39l-.008.008Zm8.858 22.293H15.23a6.34 6.34 0 0 1-6.332-6.324V15.23a6.324 6.324 0 0 1 6.332-6.324h5.235v30.19ZM23.096 6h-7.867A9.229 9.229 0 0 0 6 15.23V32.77A9.229 9.229 0 0 0 15.229 42h7.867a.265.265 0 0 0 .265-.265V6.265A.265.265 0 0 0 23.103 6h-.007Zm10.991 16.158a3.638 3.638 0 1 1-3.563 3.563 3.63 3.63 0 0 1 3.563-3.563ZM27.227 42h5.544A9.229 9.229 0 0 0 42 32.771V15.23A9.229 9.229 0 0 0 32.77 6h-5.59a.227.227 0 0 0-.235.227v35.508a.265.265 0 0 0 .257.265h.023Z" stroke="none"/></svg>