<svg xmlns="http://www.w3.org/2000/svg" stroke="currentColor" stroke-linecap="round" stroke-linejoin="round" fill="currentColor" stroke-width="0" viewBox="0 0 48 48"><path d="m26.248 22.386 5.432-5.562L9.434 4.278s-1.035-.13-1.294 0l18.108 18.108ZM8.17 43.722c.26.13 1.294 0 1.294 0L31.71 31.176l-5.433-5.562L8.17 43.722ZM6.329 5.83s-.13.517-.13 4.656v27.162c0 4.14.13 4.656.13 4.656l18.237-18.237L6.329 5.83ZM41.991 24.067c0-1.164-1.257-1.94-1.257-1.94l-6.855-4.01-6.017 5.95h.009l6.017 5.95 6.855-4.01S42 25.23 42 24.067h-.009Z" stroke="none"/></svg>