<svg xmlns="http://www.w3.org/2000/svg" stroke="currentColor" stroke-linecap="round" stroke-linejoin="round" fill="currentColor" stroke-width="0" viewBox="0 0 48 48"><path d="M11.3 11.191a18.13 18.13 0 0 0-1.658 23.71.079.079 0 0 0 .096.03.072.072 0 0 0 .02-.091C8.4 30.596 15.34 20.313 18.931 16.002a.096.096 0 0 0 .026-.053.083.083 0 0 0-.034-.059c-6.034-6.065-7.645-4.68-7.622-4.699Zm25.036-.001a18.132 18.132 0 0 1 1.656 23.71.078.078 0 0 1-.095.03.077.077 0 0 1-.02-.093c1.357-4.242-5.58-14.534-9.165-18.847a.084.084 0 0 1-.026-.05.078.078 0 0 1 .034-.06c6.036-6.068 7.637-4.67 7.616-4.69ZM23.82 6c3.28-.012 6.496.901 9.28 2.635a.066.066 0 0 1-.056.12c-3.45-.753-8.692 2.257-9.187 2.558a.056.056 0 0 1-.076 0c-1.316-.763-6.162-3.33-9.213-2.54a.07.07 0 0 1-.087-.032.072.072 0 0 1 .03-.09 17.416 17.416 0 0 1 9.31-2.65Zm0 14.436a.1.1 0 0 1 .056.028c5.332 4.1 14.457 14.225 11.67 17.084a17.672 17.672 0 0 1-23.456 0c-2.782-2.86 6.342-12.985 11.668-17.083a.114.114 0 0 1 .062-.03Z" stroke="none"/></svg>